<?xml version="1.0" standalone="no"?>
<!DOCTYPE svg PUBLIC "-//W3C//DTD SVG 20010904//EN"
 "http://www.w3.org/TR/2001/REC-SVG-20010904/DTD/svg10.dtd">
<svg version="1.0" xmlns="http://www.w3.org/2000/svg"
 width="316.000000pt" height="316.000000pt" viewBox="0 0 316.000000 316.000000"
 preserveAspectRatio="xMidYMid meet">
<metadata>
Created by potrace 1.14, written by Peter Selinger 2001-2017
</metadata>
<g transform="translate(0.000000,316.000000) scale(0.100000,-0.100000)"
fill="#000000" stroke="none">
<path d="M1525 3100 c3 -5 -14 -9 -37 -9 -59 -1 -78 -3 -78 -11 0 -5 -18 -9
-57 -12 -7 -1 -11 -3 -9 -5 2 -3 -8 -17 -22 -31 -15 -15 -27 -36 -26 -47 0
-11 -7 -29 -15 -40 -15 -18 -15 -19 1 -6 16 12 18 11 16 -13 -1 -14 -7 -26
-13 -26 -5 0 -4 -4 3 -9 15 -9 13 -44 -3 -45 -5 -1 -11 14 -13 32 -2 17 -8 32
-14 32 -5 0 -7 7 -4 16 9 24 -22 81 -52 93 -37 15 -110 17 -124 3 -9 -9 -15
-9 -25 0 -11 9 -12 7 -7 -7 5 -13 4 -16 -4 -11 -7 4 -15 0 -18 -9 -5 -12 -9
-13 -20 -4 -12 10 -13 9 -8 -5 4 -11 1 -16 -10 -16 -9 0 -26 -9 -38 -20 -12
-11 -18 -20 -12 -20 11 0 -17 -20 -29 -20 -5 0 -5 6 -1 13 6 9 5 9 -8 0 -8 -7
-18 -10 -21 -6 -4 3 -7 2 -7 -3 0 -12 -41 -11 -60 1 -8 5 -11 4 -6 -3 3 -6 2
-13 -4 -17 -5 -3 -10 0 -10 7 -1 9 -5 7 -14 -4 -7 -10 -18 -18 -23 -18 -11 0
-49 -34 -73 -65 -13 -17 -13 -18 0 -10 13 8 13 6 2 -8 -8 -9 -11 -21 -7 -27 3
-5 1 -10 -5 -10 -6 0 -9 -4 -5 -9 9 -15 -13 -23 -34 -11 -14 7 -22 7 -27 -1
-3 -6 -15 -9 -25 -6 -10 3 -22 1 -25 -4 -3 -5 -9 -7 -13 -5 -4 3 -13 1 -21 -4
-9 -5 -20 -4 -29 3 -12 9 -13 9 -8 0 4 -7 3 -21 -3 -33 -5 -11 -14 -29 -20
-39 -6 -13 -6 -21 2 -23 8 -3 8 -10 -1 -25 -6 -13 -7 -24 -2 -28 5 -3 12 -19
16 -35 4 -17 11 -30 17 -30 6 0 9 -3 5 -6 -3 -3 5 -17 19 -31 13 -13 22 -29
19 -34 -4 -5 -2 -9 3 -9 5 0 17 -16 26 -35 9 -19 21 -37 26 -40 6 -4 7 -11 4
-17 -4 -6 -2 -8 4 -4 6 3 14 0 19 -8 4 -8 19 -16 33 -18 14 -2 31 -7 38 -11 6
-5 17 -5 22 -2 6 3 10 4 10 1 0 -8 -24 -60 -30 -66 -3 -3 -14 -24 -24 -47 -11
-24 -23 -43 -28 -43 -5 0 -7 -4 -4 -9 4 -5 1 -22 -5 -38 -11 -29 -21 -69 -22
-90 0 -7 -3 -13 -7 -13 -3 0 -7 -14 -8 -32 -2 -18 -8 -36 -15 -40 -9 -6 -9 -8
1 -8 6 0 12 -5 12 -11 0 -5 -4 -8 -8 -5 -4 2 -7 -18 -6 -44 0 -27 -2 -47 -7
-45 -4 3 -5 -4 -2 -15 3 -11 -1 -28 -8 -37 -10 -12 -10 -14 -1 -9 8 5 12 0 12
-13 0 -12 -6 -21 -12 -22 -7 0 -4 -4 7 -9 11 -5 15 -9 8 -9 -8 -1 -9 -10 -3
-31 5 -17 7 -41 4 -55 -2 -14 -1 -25 4 -25 4 0 7 -12 7 -27 -1 -16 4 -34 9
-42 9 -12 8 -13 -3 -7 -8 5 -6 -3 5 -20 14 -21 15 -26 4 -19 -12 7 -13 6 -4
-6 6 -8 17 -36 24 -64 13 -52 49 -136 63 -146 5 -3 9 -10 9 -15 1 -18 23 -59
37 -70 8 -6 11 -16 7 -22 -4 -7 -1 -12 9 -12 11 0 15 -5 11 -16 -3 -8 -2 -12
4 -9 9 6 14 -8 11 -28 -1 -5 2 -6 7 -3 4 2 17 -7 28 -22 10 -14 26 -32 36 -40
9 -8 15 -20 14 -26 -2 -6 -1 -7 2 -3 2 4 10 3 18 -4 8 -6 11 -16 7 -22 -3 -6
-1 -7 6 -3 6 4 14 0 17 -8 3 -9 10 -14 14 -11 11 7 33 -22 25 -34 -3 -6 0 -8
8 -5 8 3 21 -1 28 -8 8 -7 26 -19 41 -27 15 -8 25 -18 22 -23 -3 -5 -2 -7 3
-6 12 4 73 -26 73 -35 0 -5 5 -5 12 -1 7 4 8 3 4 -5 -4 -7 -13 -10 -19 -8 -19
7 -109 -43 -114 -62 -6 -24 -42 -20 -64 8 -11 13 -19 20 -19 16 0 -3 -7 0 -15
8 -15 16 -110 18 -132 4 -7 -5 -13 -6 -13 -3 0 3 -15 -8 -32 -25 -18 -16 -36
-29 -40 -29 -5 0 -8 -7 -8 -16 0 -9 -6 -14 -12 -11 -9 3 -13 -6 -14 -25 -1
-17 -5 -33 -10 -37 -5 -3 -10 -24 -12 -46 -1 -21 -7 -42 -13 -46 -8 -5 -8 -8
0 -13 7 -5 8 -13 2 -25 -6 -10 -6 -23 -1 -31 5 -9 5 -19 -2 -27 -7 -9 -7 -13
1 -13 6 0 11 -8 11 -18 0 -18 44 -57 64 -57 6 0 23 -13 39 -29 15 -16 27 -26
27 -21 0 4 8 -1 18 -11 9 -10 26 -21 37 -22 11 -2 23 -9 27 -15 6 -9 8 -9 8
-1 0 7 20 1 47 -12 25 -13 52 -24 59 -24 7 0 15 -6 17 -12 4 -10 6 -10 6 -1 1
7 8 10 16 7 8 -4 13 -9 11 -13 -2 -3 10 -7 27 -8 19 -2 40 -12 51 -25 10 -13
20 -22 22 -20 2 1 20 2 40 2 25 0 33 -3 28 -12 -6 -10 -4 -10 8 0 11 9 18 10
23 2 3 -5 11 -10 16 -10 6 0 8 4 5 9 -4 6 6 6 24 0 16 -5 44 -13 60 -18 17 -5
28 -5 25 -1 -3 5 6 3 21 -5 15 -7 33 -11 42 -8 8 4 13 2 9 -3 -5 -9 79 -9 136
0 15 2 27 1 27 -3 0 -3 17 -7 38 -8 181 -9 263 -3 313 22 23 12 29 13 23 3 -6
-11 -5 -11 8 0 9 7 27 15 40 16 30 4 61 17 69 29 4 5 27 10 53 10 25 1 46 5
46 10 0 4 9 7 19 7 11 0 22 4 25 8 3 5 24 9 47 10 23 1 47 6 54 12 6 5 16 6
20 2 5 -4 5 -1 1 6 -4 6 -3 12 2 12 12 0 58 40 46 40 -5 0 -1 5 9 11 9 5 17
17 17 25 0 8 4 12 10 9 5 -3 7 0 4 8 -5 13 17 22 73 29 7 1 15 8 18 16 3 9 12
12 22 8 10 -4 14 -4 10 0 -7 8 33 40 45 37 4 -2 4 5 1 14 -4 11 -3 14 5 9 7
-4 13 0 14 11 0 10 2 23 3 28 2 6 3 16 4 23 1 8 6 10 14 6 9 -6 9 -5 0 7 -10
12 -10 18 -1 27 9 9 9 12 0 12 -8 0 -9 7 -2 25 6 17 6 25 -1 25 -6 0 -8 4 -5
9 4 5 0 12 -6 14 -10 4 -10 6 -1 6 16 1 -5 51 -20 51 -6 0 -7 3 -4 7 4 3 -3
11 -14 17 -12 6 -20 14 -18 17 2 3 -4 13 -14 23 -9 10 -14 22 -11 28 4 6 2 8
-3 5 -6 -4 -13 0 -17 8 -3 8 -14 15 -25 15 -11 0 -23 5 -26 10 -5 8 -11 8 -19
1 -7 -6 -16 -8 -20 -4 -11 11 -46 10 -46 -1 0 -6 -5 -4 -10 4 -6 10 -10 11
-10 3 0 -7 -7 -13 -15 -13 -8 0 -15 -5 -15 -11 0 -5 -4 -7 -10 -4 -5 3 -10 0
-10 -8 0 -19 -34 -49 -45 -40 -4 5 -6 3 -2 -2 3 -6 0 -20 -6 -32 -10 -18 -14
-19 -25 -7 -10 11 -10 14 0 14 10 0 10 2 0 9 -8 4 -13 10 -12 12 7 17 -16 58
-34 63 -13 3 -23 13 -23 23 0 20 22 45 31 36 3 -4 6 -1 6 5 0 7 5 12 10 12 6
0 21 9 33 20 12 11 27 18 34 16 7 -3 10 1 6 10 -5 13 8 19 30 15 5 -1 6 3 3 8
-3 5 6 16 19 25 14 9 23 21 20 26 -4 6 0 10 8 10 8 0 22 12 32 26 9 14 22 23
30 20 9 -3 12 0 9 8 -3 7 2 20 10 29 9 9 16 20 16 25 0 6 7 13 16 16 8 3 13
10 10 14 -3 5 3 14 14 22 10 7 16 20 12 28 -3 10 -1 13 6 8 7 -4 12 -1 12 8 0
9 5 16 11 16 5 0 8 4 4 9 -3 5 -1 12 5 16 6 4 8 10 5 15 -3 4 2 13 10 20 8 7
12 16 9 21 -3 5 0 9 5 9 6 0 10 3 10 8 -1 4 0 10 1 15 1 4 3 10 5 15 3 12 16
46 27 72 6 14 12 39 12 55 1 17 8 36 16 43 10 9 10 11 1 6 -10 -5 -11 -1 -7
14 10 30 17 81 19 134 1 25 5 50 9 54 4 4 3 14 -4 21 -9 11 -9 17 3 24 8 5 9
9 3 9 -7 0 -11 17 -10 46 1 25 -2 48 -6 50 -13 9 -9 26 5 18 6 -4 4 2 -5 13
-20 22 -24 38 -7 27 6 -3 4 7 -3 22 -8 16 -13 37 -11 47 3 9 0 17 -5 17 -6 0
-9 8 -7 18 1 9 -5 26 -14 36 -13 16 -13 18 -1 11 12 -6 13 -5 3 6 -7 7 -13 21
-13 31 0 10 -4 18 -8 18 -4 0 -8 9 -9 20 -1 11 -11 33 -22 49 -12 16 -21 36
-21 45 0 9 -4 16 -10 16 -5 0 -10 7 -10 15 0 8 -4 15 -9 15 -6 0 -8 9 -6 20 2
11 -1 19 -7 17 -6 -1 -13 4 -15 11 -3 9 1 13 13 11 11 -2 26 1 34 6 8 5 26 10
39 11 14 2 27 8 29 14 2 5 8 10 14 10 14 0 48 40 48 57 0 16 21 55 35 65 6 4
10 11 11 15 2 21 16 70 24 85 6 11 6 19 0 23 -6 4 -8 10 -5 15 3 5 1 11 -4 15
-6 3 -8 12 -5 19 3 8 0 17 -5 21 -6 3 -9 11 -6 16 4 5 1 9 -6 9 -6 0 -20 10
-30 22 -11 11 -19 18 -19 15 0 -4 -16 2 -36 13 -19 11 -33 16 -29 10 3 -6 0
-7 -9 -4 -9 3 -14 9 -12 13 3 4 -7 6 -22 6 -28 -1 -75 32 -67 46 3 4 -4 10
-15 14 -11 3 -20 10 -20 15 0 10 -90 42 -90 32 0 -4 -5 0 -10 8 -6 10 -10 11
-10 2 0 -14 -21 -12 -32 3 -5 6 -8 5 -8 -4 0 -10 -3 -11 -13 -2 -8 6 -17 8
-21 4 -10 -10 -37 -13 -31 -3 3 5 1 11 -5 15 -6 4 -7 12 -4 18 4 7 4 9 0 5 -5
-4 -25 10 -45 30 -40 40 -61 50 -61 30 0 -10 -2 -10 -8 -1 -5 7 -19 13 -33 12
-79 -1 -94 2 -117 23 -14 13 -22 18 -19 12 5 -8 -2 -11 -18 -10 -14 0 -25 5
-25 9 0 5 -4 5 -10 2 -5 -3 -19 -1 -31 6 -15 7 -19 8 -15 0 8 -13 -15 -5 -62
21 -19 10 -30 14 -27 8 5 -8 -10 -10 -44 -7 -28 1 -51 -1 -51 -6 0 -4 -4 -5
-10 -2 -5 3 -10 2 -10 -3 0 -13 -30 -8 -68 10 -18 9 -30 13 -27 8z m-218 -312
c2 -17 0 -19 -7 -8 -5 8 -6 18 -4 22 8 12 10 10 11 -14z"/>
</g>
</svg>
